<svg id="Layer_1" data-name="Layer 1" xmlns="http://www.w3.org/2000/svg" xmlns:xlink="http://www.w3.org/1999/xlink" viewBox="0 0 3066.15 955.37"><defs><style>.cls-1{fill:none;}.cls-2{clip-path:url(#clip-path);}.cls-3{clip-path:url(#clip-path-2);}.cls-4{fill:url(#linear-gradient);}.cls-5{fill:#a5594f;}.cls-6{fill:url(#linear-gradient-2);}.cls-7{fill:url(#linear-gradient-3);}.cls-8{fill:#8dc2e9;}.cls-9{fill:url(#linear-gradient-4);}.cls-10{fill:#58b847;}.cls-11{fill:url(#linear-gradient-5);}.cls-12{fill:url(#linear-gradient-6);}.cls-13{fill:#68bc45;}.cls-14{fill:url(#linear-gradient-7);}.cls-15{fill:url(#linear-gradient-8);}.cls-16{fill:url(#linear-gradient-9);}.cls-17{fill:url(#linear-gradient-10);}.cls-18{fill:url(#linear-gradient-11);}.cls-19{fill:url(#linear-gradient-12);}.cls-20{fill:url(#linear-gradient-13);}.cls-21{fill:url(#linear-gradient-14);}.cls-22{fill:url(#linear-gradient-15);}.cls-23{fill:url(#linear-gradient-16);}.cls-24{fill:url(#linear-gradient-17);}.cls-25{fill:url(#linear-gradient-18);}.cls-26{fill:url(#linear-gradient-19);}.cls-27{fill:url(#linear-gradient-20);}.cls-28{fill:url(#linear-gradient-21);}.cls-29{fill:url(#linear-gradient-22);}.cls-30{fill:url(#linear-gradient-23);}.cls-31{fill:url(#linear-gradient-24);}.cls-32{fill:url(#linear-gradient-25);}.cls-33{fill:url(#linear-gradient-26);}.cls-34{fill:url(#linear-gradient-27);}.cls-35{fill:url(#linear-gradient-28);}.cls-36{fill:url(#linear-gradient-29);}.cls-37{fill:#af7e4d;}.cls-38{fill:#c5dcb0;}.cls-39{fill:#62ba46;}.cls-40{fill:#445f41;}.cls-41{fill:url(#linear-gradient-30);}.cls-42{fill:url(#linear-gradient-31);}.cls-43{fill:url(#linear-gradient-32);}.cls-44{fill:#4a6947;}.cls-45{fill:url(#linear-gradient-33);}.cls-46{fill:url(#linear-gradient-34);}.cls-47{fill:url(#linear-gradient-35);}.cls-48{fill:#182b18;}.cls-49{fill:#495448;}.cls-50{fill:url(#linear-gradient-36);}.cls-51{fill:#215957;opacity:0.58;}.cls-52{fill:#38793d;}.cls-53{fill:url(#linear-gradient-37);}.cls-54{fill:url(#linear-gradient-38);}.cls-55{fill:url(#linear-gradient-39);}.cls-56{fill:url(#linear-gradient-40);}.cls-57{fill:url(#linear-gradient-41);}.cls-58{fill:url(#linear-gradient-42);}.cls-59{fill:url(#linear-gradient-43);}.cls-60{fill:url(#linear-gradient-44);}.cls-61{fill:#122416;}.cls-62{fill:#112014;}.cls-63{fill:#a5cd39;}.cls-64{fill:url(#linear-gradient-45);}.cls-65{fill:url(#linear-gradient-46);}.cls-66{fill:url(#linear-gradient-47);}</style><clipPath id="clip-path" transform="translate(75.71 54.66)"><rect class="cls-1" width="2693" height="900"/></clipPath><clipPath id="clip-path-2" transform="translate(75.71 54.66)"/><linearGradient id="linear-gradient" x1="925.31" y1="845.1" x2="2518.82" y2="-249.23" gradientUnits="userSpaceOnUse"><stop offset="0.09" stop-color="#90c6dc"/><stop offset="0.37" stop-color="#9ccfe8"/><stop offset="0.45" stop-color="#a0d3ec"/><stop offset="0.63" stop-color="#a0d1eb"/><stop offset="0.67" stop-color="#a0cee8"/></linearGradient><linearGradient id="linear-gradient-2" x1="1565.01" y1="771.13" x2="2735.8" y2="188.47" gradientUnits="userSpaceOnUse"><stop offset="0" stop-color="#92c5df"/><stop offset="0.43" stop-color="#95c9e2"/><stop offset="0.81" stop-color="#a0d4ec"/><stop offset="1" stop-color="#a8dcf3"/></linearGradient><linearGradient id="linear-gradient-3" x1="208.37" y1="1317.09" x2="2589.98" y2="131.84" gradientUnits="userSpaceOnUse"><stop offset="0.01" stop-color="#81b4d3"/><stop offset="0.44" stop-color="#83b6d7"/><stop offset="0.83" stop-color="#89bde2"/><stop offset="1" stop-color="#8dc2e9"/></linearGradient><linearGradient id="linear-gradient-4" x1="102" y1="873.63" x2="1283.22" y2="285.77" gradientUnits="userSpaceOnUse"><stop offset="0.01" stop-color="#69c3a6"/><stop offset="0.39" stop-color="#66c1a2"/><stop offset="0.73" stop-color="#5cbb97"/><stop offset="1" stop-color="#4fb489"/></linearGradient><linearGradient id="linear-gradient-5" x1="110.35" y1="888.06" x2="1170.29" y2="360.56" gradientUnits="userSpaceOnUse"><stop offset="0.01" stop-color="#39ab72"/><stop offset="0.77" stop-color="#43b880"/></linearGradient><linearGradient id="linear-gradient-6" x1="202.39" y1="647.68" x2="219.32" y2="331.95" gradientUnits="userSpaceOnUse"><stop offset="0.02" stop-color="#a78b40"/><stop offset="0.11" stop-color="#a18a41"/><stop offset="0.22" stop-color="#918644"/><stop offset="0.35" stop-color="#767f4a"/><stop offset="0.49" stop-color="#507652"/><stop offset="0.64" stop-color="#216b5b"/><stop offset="0.78" stop-color="#19675c"/><stop offset="0.97" stop-color="#14645c"/></linearGradient><linearGradient id="linear-gradient-7" x1="199.73" y1="369.69" x2="286.59" y2="325.79" gradientUnits="userSpaceOnUse"><stop offset="0" stop-color="#2c6f40"/><stop offset="1" stop-color="#1b936c"/></linearGradient><linearGradient id="linear-gradient-8" x1="159.86" y1="444.9" x2="233.78" y2="313.61" gradientUnits="userSpaceOnUse"><stop offset="0" stop-color="#096946"/><stop offset="0.17" stop-color="#0e6d46"/><stop offset="0.38" stop-color="#1e7746"/><stop offset="0.61" stop-color="#388847"/><stop offset="0.86" stop-color="#5ba048"/><stop offset="1" stop-color="#73b048"/></linearGradient><linearGradient id="linear-gradient-9" x1="242.4" y1="429.97" x2="336.26" y2="383.26" gradientUnits="userSpaceOnUse"><stop offset="0" stop-color="#1f8969"/><stop offset="0.23" stop-color="#238b68"/><stop offset="0.43" stop-color="#2e9064"/><stop offset="0.63" stop-color="#40985d"/><stop offset="0.83" stop-color="#5aa453"/><stop offset="1" stop-color="#78b248"/></linearGradient><linearGradient id="linear-gradient-10" x1="108.46" y1="413.05" x2="152.63" y2="390.52" xlink:href="#linear-gradient-9"/><linearGradient id="linear-gradient-11" x1="109.07" y1="421.37" x2="160.93" y2="399.69" gradientUnits="userSpaceOnUse"><stop offset="0" stop-color="#1f8969"/><stop offset="0.26" stop-color="#238b68"/><stop offset="0.5" stop-color="#2e9063"/><stop offset="0.72" stop-color="#40995c"/><stop offset="0.94" stop-color="#5aa551"/><stop offset="1" stop-color="#62a94e"/></linearGradient><linearGradient id="linear-gradient-12" x1="58.07" y1="677.53" x2="84.89" y2="177.31" xlink:href="#linear-gradient-6"/><linearGradient id="linear-gradient-13" x1="55.84" y1="234.03" x2="182.56" y2="169.98" xlink:href="#linear-gradient-7"/><linearGradient id="linear-gradient-14" x1="-3.79" y1="349.06" x2="106.9" y2="152.46" xlink:href="#linear-gradient-8"/><linearGradient id="linear-gradient-15" x1="117.66" y1="328.86" x2="255.68" y2="260.17" xlink:href="#linear-gradient-9"/><linearGradient id="linear-gradient-16" x1="-78.11" y1="304.4" x2="-13.08" y2="271.23" xlink:href="#linear-gradient-9"/><linearGradient id="linear-gradient-17" x1="-77.16" y1="317.54" x2="-0.71" y2="285.58" xlink:href="#linear-gradient-11"/><linearGradient id="linear-gradient-18" x1="1.74" y1="670.86" x2="422.16" y2="461.63" gradientUnits="userSpaceOnUse"><stop offset="0.01" stop-color="#1c6c54"/><stop offset="0.77" stop-color="#4e8846"/></linearGradient><linearGradient id="linear-gradient-19" x1="1294.38" y1="738.89" x2="1982.57" y2="563.66" gradientUnits="userSpaceOnUse"><stop offset="0" stop-color="#1b8275"/><stop offset="0.77" stop-color="#179579"/></linearGradient><linearGradient id="linear-gradient-20" x1="330.99" y1="1452.54" x2="2534.78" y2="326.25" gradientUnits="userSpaceOnUse"><stop offset="0.11" stop-color="#58b4e5"/><stop offset="0.21" stop-color="#5db6e5"/><stop offset="0.34" stop-color="#6bbee7"/><stop offset="0.47" stop-color="#83c9e8"/><stop offset="0.51" stop-color="#8bcde9"/><stop offset="0.59" stop-color="#89cde6"/><stop offset="0.65" stop-color="#84ccdc"/><stop offset="0.68" stop-color="#80cbd4"/><stop offset="0.83" stop-color="#79cbda"/><stop offset="0.84" stop-color="#78cbdb"/></linearGradient><linearGradient id="linear-gradient-21" x1="2315.86" y1="750.3" x2="2473.56" y2="101.01" gradientUnits="userSpaceOnUse"><stop offset="0" stop-color="#a3513f"/><stop offset="0.12" stop-color="#9f5240"/><stop offset="0.25" stop-color="#915442"/><stop offset="0.39" stop-color="#7c5845"/><stop offset="0.53" stop-color="#5d5e4a"/><stop offset="0.65" stop-color="#40634e"/></linearGradient><linearGradient id="linear-gradient-22" x1="2595.37" y1="219.43" x2="2784.99" y2="22.55" gradientUnits="userSpaceOnUse"><stop offset="0" stop-color="#0d5f3f"/><stop offset="0.16" stop-color="#07724a"/><stop offset="0.28" stop-color="#018455"/><stop offset="0.41" stop-color="#24995c"/><stop offset="0.56" stop-color="#43ac62"/><stop offset="0.68" stop-color="#56b766"/><stop offset="0.76" stop-color="#5dbb67"/></linearGradient><linearGradient id="linear-gradient-23" x1="2215.07" y1="309.73" x2="2652.58" y2="-180.78" gradientUnits="userSpaceOnUse"><stop offset="0" stop-color="#0d5f3f"/><stop offset="0.27" stop-color="#157d66"/><stop offset="0.43" stop-color="#198a77"/><stop offset="0.76" stop-color="#23ab8c"/></linearGradient><linearGradient id="linear-gradient-24" x1="2038.11" y1="384.3" x2="2242.05" y2="129.97" xlink:href="#linear-gradient-22"/><linearGradient id="linear-gradient-25" x1="2038.11" y1="387.11" x2="2242.05" y2="132.77" gradientUnits="userSpaceOnUse"><stop offset="0.04" stop-color="#0d5e3f"/><stop offset="0.45" stop-color="#0d6f4f"/><stop offset="0.62" stop-color="#0c7455"/><stop offset="0.75" stop-color="#0a7a5d"/></linearGradient><linearGradient id="linear-gradient-26" x1="2548.63" y1="262.24" x2="2402.28" y2="-34.39" gradientTransform="matrix(-1, 0, 0, 1, 5274.86, 0)" gradientUnits="userSpaceOnUse"><stop offset="0" stop-color="#0d5f3f"/><stop offset="0.05" stop-color="#07724a"/><stop offset="0.09" stop-color="#018455"/><stop offset="0.25" stop-color="#24995c"/><stop offset="0.42" stop-color="#43ac62"/><stop offset="0.57" stop-color="#56b766"/><stop offset="0.67" stop-color="#5dbb67"/></linearGradient><linearGradient id="linear-gradient-27" x1="2435.67" y1="360.61" x2="2577.48" y2="-98.75" xlink:href="#linear-gradient-22"/><linearGradient id="linear-gradient-28" x1="2271.37" y1="755.6" x2="2713.91" y2="529.43" gradientUnits="userSpaceOnUse"><stop offset="0" stop-color="#137963"/><stop offset="0.77" stop-color="#2a8e63"/></linearGradient><linearGradient id="linear-gradient-29" x1="11.81" y1="752.01" x2="3278.04" y2="740.15" gradientUnits="userSpaceOnUse"><stop offset="0.18" stop-color="#4f5a73"/><stop offset="0.83" stop-color="#4f5a73"/></linearGradient><linearGradient id="linear-gradient-30" x1="507.22" y1="825.57" x2="614.42" y2="797.39" gradientUnits="userSpaceOnUse"><stop offset="0" stop-color="#52873e"/><stop offset="0.13" stop-color="#5a8c3d"/><stop offset="0.33" stop-color="#6f9a3a"/><stop offset="0.57" stop-color="#92b036"/><stop offset="0.83" stop-color="#c0ce30"/></linearGradient><linearGradient id="linear-gradient-31" x1="573.74" y1="828.6" x2="684.58" y2="828.6" gradientUnits="userSpaceOnUse"><stop offset="0" stop-color="#52873e"/><stop offset="0.06" stop-color="#5e8f3c"/><stop offset="0.43" stop-color="#9fba30"/><stop offset="0.69" stop-color="#c7d529"/><stop offset="0.83" stop-color="#d7df26"/></linearGradient><linearGradient id="linear-gradient-32" x1="462.76" y1="833.07" x2="578.96" y2="833.07" xlink:href="#linear-gradient-30"/><linearGradient id="linear-gradient-33" x1="765.07" y1="853.66" x2="849.81" y2="782.21" xlink:href="#linear-gradient-31"/><linearGradient id="linear-gradient-34" x1="2009.3" y1="809.12" x2="2486.61" y2="809.12" gradientUnits="userSpaceOnUse"><stop offset="0.51" stop-color="#a7dce5"/><stop offset="0.67" stop-color="#aadee8"/><stop offset="0.69" stop-color="#abdee9"/><stop offset="0.84" stop-color="#afdfe8"/></linearGradient><linearGradient id="linear-gradient-35" x1="1963.88" y1="814.61" x2="2598.71" y2="814.61" gradientUnits="userSpaceOnUse"><stop offset="0.01" stop-color="#addee3"/><stop offset="0.22" stop-color="#a1d8e6"/><stop offset="0.51" stop-color="#88ccec"/><stop offset="0.59" stop-color="#87cce9"/><stop offset="0.65" stop-color="#84cbdf"/><stop offset="0.69" stop-color="#80cad3"/><stop offset="0.76" stop-color="#84ceda"/><stop offset="0.84" stop-color="#8bd4e6"/></linearGradient><linearGradient id="linear-gradient-36" x1="253.26" y1="1297.06" x2="2423.38" y2="187.98" gradientUnits="userSpaceOnUse"><stop offset="0.02" stop-color="#579a43"/><stop offset="0.48" stop-color="#6da542"/><stop offset="0.57" stop-color="#6fa545"/><stop offset="0.65" stop-color="#74a44f"/><stop offset="0.67" stop-color="#76a353"/><stop offset="0.71" stop-color="#7da553"/><stop offset="0.77" stop-color="#91aa54"/><stop offset="0.84" stop-color="#b1b256"/><stop offset="0.84" stop-color="#b2b256"/></linearGradient><linearGradient id="linear-gradient-37" x1="242" y1="775.55" x2="352.13" y2="703.47" gradientUnits="userSpaceOnUse"><stop offset="0" stop-color="#fbf5ef"/><stop offset="0" stop-color="#fff"/><stop offset="0.01" stop-color="#664121"/><stop offset="0.31" stop-color="#8d5824"/><stop offset="0.65" stop-color="#b56f28"/><stop offset="0.83" stop-color="#c57829"/></linearGradient><linearGradient id="linear-gradient-38" x1="133.53" y1="786.93" x2="494.24" y2="602.58" gradientUnits="userSpaceOnUse"><stop offset="0.01" stop-color="#392115"/><stop offset="0.04" stop-color="#4b2e1b"/><stop offset="0.13" stop-color="#815022"/><stop offset="0.2" stop-color="#945b24"/><stop offset="0.35" stop-color="#c57829"/></linearGradient><linearGradient id="linear-gradient-39" x1="106.75" y1="753.35" x2="205.29" y2="630.62" xlink:href="#linear-gradient-38"/><linearGradient id="linear-gradient-40" x1="377.83" y1="751.79" x2="451.62" y2="751.79" gradientUnits="userSpaceOnUse"><stop offset="0.01" stop-color="#815022"/><stop offset="0.14" stop-color="#8d5723"/><stop offset="0.59" stop-color="#b66f27"/><stop offset="0.83" stop-color="#c57829"/></linearGradient><linearGradient id="linear-gradient-41" x1="5" y1="756.79" x2="98.49" y2="756.79" gradientUnits="userSpaceOnUse"><stop offset="0.01" stop-color="#3d833f"/><stop offset="0.55" stop-color="#659840"/><stop offset="0.83" stop-color="#74a040"/></linearGradient><linearGradient id="linear-gradient-42" x1="-18.8" y1="678.1" x2="62.87" y2="678.1" xlink:href="#linear-gradient-41"/><linearGradient id="linear-gradient-43" x1="76.57" y1="765.12" x2="186.07" y2="765.12" gradientUnits="userSpaceOnUse"><stop offset="0.01" stop-color="#6e9e41"/><stop offset="0.18" stop-color="#729f40"/><stop offset="0.83" stop-color="#74a040"/></linearGradient><linearGradient id="linear-gradient-44" x1="27.91" y1="748.01" x2="110.46" y2="705.82" xlink:href="#linear-gradient-41"/><linearGradient id="linear-gradient-45" x1="575.14" y1="134.61" x2="731.1" y2="-162.39" gradientUnits="userSpaceOnUse"><stop offset="0.07" stop-color="#94b9de"/><stop offset="0.29" stop-color="#accee5"/><stop offset="0.54" stop-color="#cdeaef"/></linearGradient><linearGradient id="linear-gradient-46" x1="1501.9" y1="231.78" x2="1620.35" y2="6.21" gradientUnits="userSpaceOnUse"><stop offset="0.15" stop-color="#a3c6e5"/><stop offset="0.25" stop-color="#b1d3e9"/><stop offset="0.44" stop-color="#c4e4ee"/><stop offset="0.57" stop-color="#cbeaf0"/></linearGradient><linearGradient id="linear-gradient-47" x1="1927.91" y1="103.07" x2="2016.12" y2="-64.91" gradientUnits="userSpaceOnUse"><stop offset="0.01" stop-color="#a3c4e3"/><stop offset="0.87" stop-color="#d3edf6"/></linearGradient></defs><g class="cls-2"><g class="cls-3"><rect class="cls-4" x="75.71" y="54.66" width="2693" height="898.38"/><path class="cls-5" d="M2398.28,685.82s-83.14,69-69.85,189.43c38.08,3.67,1.64,4.92,1.64,4.92s75.94-2.68,89-10,29.83-21.27,27-40.48S2401.05,697.19,2398.28,685.82Z" transform="translate(75.71 54.66)"/><path class="cls-6" d="M1513.31,335.87s401-206.72,752.51-60.8S2726.2,169.18,2726.2,169.18l-26.13,498.07H1513.31Z" transform="translate(75.71 54.66)"/><path class="cls-7" d="M0,603v295.4H2693L2721.94,450s85.44-82.65-158,33.87S1924.45,608.15,1404,262.05C811.07-55.57,378.67,543.42,378.67,543.42" transform="translate(75.71 54.66)"/><path class="cls-8" d="M0,287.47s295.47-1.39,541.61,87.45C378.67,543.42,384.8,554.43,384.8,554.43L0,584.65Z" transform="translate(75.71 54.66)"/><path class="cls-9" d="M-35.65,494.22s159.14-18,223.78-79.8S442.39,105.58,678,315.3c109.17,129.29,148,198.24,265.75,170.94s239.89-20.11,478.35,146.52l51.71,35.92H0Z" transform="translate(75.71 54.66)"/><path class="cls-10" d="M668.56,665.08s-22.11-38.86-20.16-49.91S679,642.16,668.56,665.08Z" transform="translate(75.71 54.66)"/><path class="cls-10" d="M685.47,665.08s-9.75-23.9-11.7-39.51,7.8-5.69,11.7,16.91S685.47,665.08,685.47,665.08Z" transform="translate(75.71 54.66)"/><path class="cls-10" d="M693.44,665.08s15-23.9,28.61-37.55,2.6,37.55-9.1,37.55Z" transform="translate(75.71 54.66)"/><path class="cls-10" d="M800.09,665.08S778.63,650.35,778,641.54s1.3-18.76,6.51-23.54,20.16,32.94,23.41,42S800.09,665.08,800.09,665.08Z" transform="translate(75.71 54.66)"/><path class="cls-10" d="M827.41,661.34s-3.25-17.56,19.51-27.31S827.41,661.34,827.41,661.34Z" transform="translate(75.71 54.66)"/><path class="cls-11" d="M2,558.64S190.13,422.8,396,552.18c99.17,60.45,175.66,45.34,258.78,27.39,0,0,127.5-8.5,198.33,67.06,98.22-38.72,294.66-76.5,471.27,23.61-97.27-1.89-1322.45,0-1322.45,0Z" transform="translate(75.71 54.66)"/><path class="cls-12" d="M286.67,410.93c-6.56,12.38-27.66,20.81-38.06,12.31-2.84-2.32-4.85-.68-4.85-.68-15.45,4.8-14.77,19-14.77,19,14.85,123.81,4.77,198.05,4.77,198.05H187.23c-6-39.1.68-122.91,2.71-147.33.53-6.36-1.74-35.37-1.74-35.37s-3.54-18.7-6.4-23.55a52.63,52.63,0,0,0-11.13-13C132,418.55,145.55,414,145.55,414c2,1.63,24,.1,26-1.21s-8.54-33.9-8.54-33.9h7.48c1.14,10.1,9.05,34.55,9.05,34.55,5.61,2.34,13.37-31.92,13.37-31.92h7.47s-12.56,27.36-7.14,24.76,14-22.35,14-22.35H213s-8.93,22.66-16.64,27.87-2.93,8.4-2.93,8.4C216.56,430.64,216.75,384,216.75,384h4c-2.57,23.78,1.15,33.69,1.15,33.69,19.58,3.54,24.14-33.69,24.14-33.69l6.33-2.41c.71,10.42-4.93,30.29-4.93,30.29s2.57,8.15,12.84,8.48c6.14.19,15.41-13.85,18-16.35Z" transform="translate(75.71 54.66)"/><path class="cls-13" d="M287.9,350.78s-11.68-27-55-23.43-63.91,26.6,22,31C254.92,358.32,294.77,366.26,287.9,350.78Z" transform="translate(75.71 54.66)"/><path class="cls-14" d="M287.89,351.74s-11.83-27-55.65-23.43-64.7,26.6,22.26,31C254.5,359.28,294.85,367.22,287.89,351.74Z" transform="translate(75.71 54.66)"/><path class="cls-13" d="M135.32,376.78s20.11,5.15,81,7.9c58.36,2.64,59.67-9,59.67-9s12.69-26.83-39.93-34.89C187.66,333.34,98.66,354.18,135.32,376.78Z" transform="translate(75.71 54.66)"/><path class="cls-15" d="M135.32,378.12s20.11,5.19,81,8C274.7,388.75,276,377,276,377s12.69-27-39.93-35.17C187.66,334.34,98.66,355.34,135.32,378.12Z" transform="translate(75.71 54.66)"/><path class="cls-13" d="M263.43,409.83s36.17,4.49,66.88,0,11.13-26.67,0-29.36c-11.65-2.81-38.81-3.93-71,15.68C238.74,408.67,263.43,409.83,263.43,409.83Z" transform="translate(75.71 54.66)"/><path class="cls-16" d="M263.15,409.89s35.86,4.35,66.28,0,11-25.85,0-28.46c-11.54-2.72-38.46-3.81-70.37,15.2C238.68,408.77,263.15,409.89,263.15,409.89Z" transform="translate(75.71 54.66)"/><path class="cls-17" d="M137.46,396.76s-24.34-6.65-27.48,8.5c-.93,4.47,4.38,5.86,14.43,6C133.47,411.45,166.29,402.46,137.46,396.76Z" transform="translate(75.71 54.66)"/><path class="cls-13" d="M113.19,416.31s15.8,5.6,36.48-1.8c11.07-4,8.72-16.05-2.73-16.05S102.56,408,113.19,416.31Z" transform="translate(75.71 54.66)"/><path class="cls-18" d="M112.22,417.53s16.15,5.75,37.29-1.85c11.31-4.07,8.91-16.49-2.79-16.49S101.35,409,112.22,417.53Z" transform="translate(75.71 54.66)"/><path class="cls-19" d="M182.89,302.24c-9.6,19.64-40.46,33-55.68,19.53-4.14-3.67-7.09-1.07-7.09-1.07-22.6,7.6-21.6,30.09-21.6,30.09,21.71,196.37,7,314.11,7,314.11H37.43c-8.77-62,1-194.93,4-233.67.78-10.09-2.54-56.1-2.54-56.1s-5.19-29.66-9.36-37.34a81.74,81.74,0,0,0-16.29-20.67c-56.64-2.79-36.74-10-36.74-10,2.93,2.58,35.07.15,38-1.92S2,251.47,2,251.47H12.91c1.67,16,13.25,54.8,13.25,54.8,8.2,3.71,19.55-50.64,19.55-50.64H56.65S38.27,299,46.2,294.9s20.54-35.45,20.54-35.45h8.41S62.08,295.4,50.81,303.66,46.51,317,46.51,317c33.82,16.53,34.1-57.53,34.1-57.53H86.5c-3.75,37.73,1.69,53.45,1.69,53.45,28.64,5.6,35.32-53.45,35.32-53.45l9.25-3.82c1,16.54-7.22,48.05-7.22,48.05a20,20,0,0,0,18.79,13.44c9,.31,22.53-22,26.27-25.93Z" transform="translate(75.71 54.66)"/><path class="cls-13" d="M184.69,206.85S167.6,164,104.28,169.7s-93.48,42.19,32.16,49.11C136.44,218.81,194.74,231.4,184.69,206.85Z" transform="translate(75.71 54.66)"/><path class="cls-20" d="M184.67,208.37s-17.3-42.82-81.41-37.15S8.63,213.4,135.83,220.33C135.83,220.33,194.85,232.92,184.67,208.37Z" transform="translate(75.71 54.66)"/><path class="cls-13" d="M-38.49,248.08S-9.07,256.25,80,260.62c85.35,4.19,87.28-14.33,87.28-14.33s18.56-42.55-58.41-55.33C38.06,179.2-92.12,212.25-38.49,248.08Z" transform="translate(75.71 54.66)"/><path class="cls-21" d="M-38.49,250.2S-9.07,258.44,80,262.84c85.35,4.23,87.28-14.44,87.28-14.44s18.56-42.89-58.41-55.77C38.06,180.77-92.12,214.09-38.49,250.2Z" transform="translate(75.71 54.66)"/><path class="cls-13" d="M148.89,300.5s52.92,7.12,97.82,0,16.29-42.29,0-46.55c-17-4.46-56.76-6.25-103.86,24.85C112.78,298.67,148.89,300.5,148.89,300.5Z" transform="translate(75.71 54.66)"/><path class="cls-22" d="M148.48,300.6s52.45,6.9,97,0,16.14-41,0-45.13c-16.88-4.32-56.26-6.06-102.94,24.1C112.7,298.82,148.48,300.6,148.48,300.6Z" transform="translate(75.71 54.66)"/><path class="cls-23" d="M-35.37,279.77S-71,269.22-75.56,293.25c-1.36,7.1,6.4,9.3,21.11,9.57C-41.2,303.07,6.81,288.82-35.37,279.77Z" transform="translate(75.71 54.66)"/><path class="cls-13" d="M-70.87,310.78s23.12,8.88,53.36-2.85c16.19-6.29,12.76-25.46-4-25.46S-86.41,297.53-70.87,310.78Z" transform="translate(75.71 54.66)"/><path class="cls-24" d="M-72.29,312.72s23.63,9.12,54.55-2.93c16.55-6.46,13-26.16-4.08-26.16S-88.19,299.1-72.29,312.72Z" transform="translate(75.71 54.66)"/><path class="cls-25" d="M-6.88,420.66S18.76,429.51,5.5,464c71.62-38,113.18-3.53,109.64,42.45,73.4-8,93.73,74.27,65.44,92.84,0,0,61-36.25,117.6,14.15,56.6-44.21,191,19.46,225.49,52.17L0,667.37Z" transform="translate(75.71 54.66)"/><path class="cls-26" d="M1266.34,669s56.38-76.77,169.14-39.58c43.19-52.78,105.57-55.18,146.35-2.4,15.6-45.59,54-32.41,105.57,1.79,50.38-27,99.56-.59,115.16,13.8,82.77-44.38,84,9.6,94.76,18,48-20.4,79.18,8.39,79.18,8.39Z" transform="translate(75.71 54.66)"/><polygon class="cls-27" points="62.71 843.28 2018.79 770.21 2768.71 783.98 2768.71 953.05 75.71 953.05 62.71 843.28"/><path class="cls-28" d="M2341.66,284.9s41,26.73,40.22,65.57c-.13,6.83.39,27.7-13.46,36.81-9.64,6.35-21.3,3.83-23.06,3.42-21.76-5-34.71-31.85-47.4-58.1-10.38-21.48-15.14-38.24-27.47-40.1-1.47-.22-6.27-.94-9.22,1.87-9.18,8.76,6.67,44.85,24.46,70.34,14,20,26.08,29.12,22.93,41.28-2.44,9.45-12.43,14.24-13.38,14.68-8,3.7-16.91,2.49-29.43-2.45a145.06,145.06,0,0,1-47.79-31.37c-31.15-32.18-56.06-66.58-71.46-89.42l-10.71,10.71q9.95,16.82,19.88,33.63c-2.52-4.19-14.15-22.53-36.69-27.52a54,54,0,0,0-22.94,0c11.73,4.5,28.64,12.87,42.81,29.05,15.49,17.68,16.21,31.54,32.11,56.57,11.84,18.65,26.06,34,36.69,42.81,37,30.76,86.69,30,111.62,27.52,10.4,1.27,24.3,4.8,35.16,15.29,4.65,4.49,22.06,23.24,10.88,98,0,0-6.24,41.75-38.31,135.09h0l171.26.82c44.68,11.45,61.06,3.36,68.12-4.62,30.73-34.71-64.05-124.42-36.12-232.32,3.07-11.83,14.53-56.18,47.4-68.8,19.12-7.34,27.9,2.84,55,0,52.8-5.51,87.29-51.07,90.21-55,26.87-36.56,34.62-89.19,34.62-89.19l-22.79,3.33c-1.05,9.22-7.41,57.89-43.94,76.69-4.33,2.22-24.3,12.5-36.53,4.15-17.2-11.75-6.65-51.64-4.72-55.38,7.36-14.29,24.54-41.51,24.54-41.51l-56.68,7.12c2.68,34.47-9.43,64.79-32.57,77.45-3.08,1.69-20.73,11.36-34.76,4.15-17-8.72-24.2-39.86-11-76l-20.86-7.61s-12.77,120.87-31.9,133.29c-33.13,21.51-57.67-51.72-49.08-125.68h-24.54s16,80.88-3.68,52c-7-10.33-19.74-22.78-39.27-36.49" transform="translate(75.71 54.66)"/><path class="cls-29" d="M2561.76,111.2s41.54-20.79,106.82-20.48,138.41,46.21,118.23,75.44-32.51,46-123,45.77S2470.36,167,2561.76,111.2Z" transform="translate(75.71 54.66)"/><path class="cls-13" d="M2545.4-37.92c174.18,52.21,191.48,114.65,187.93,143.24,0,0,.37,49-179.46,98.41h0S2448.42,244.2,2253.63,223c-59.11-6.44-156.62-32-170.11-89.2-9.92-42.05,30.65-84.9,45.32-100.39C2248.4-92.86,2486.8-49.86,2545.4-37.92Z" transform="translate(75.71 54.66)"/><path class="cls-30" d="M2539.91-36.74c174.2,52.07,191.52,114.27,188,142.74,0,0,.39,48.77-179.41,97.94h0s-105.42,40.26-300.21,19c-59.11-6.44-156.63-32-170.14-88.91-9.94-41.89,30.61-84.54,45.27-100C2242.9-91.59,2481.31-48.66,2539.91-36.74Z" transform="translate(75.71 54.66)"/><path class="cls-31" d="M1975.39,265.53s-9.08-38.88,32.67-72.68c23.54-19,96.51-70.61,175.05-17.68,90.15,60.76,187.63,128.64,51,134.4S1989.64,316.72,1975.39,265.53Z" transform="translate(75.71 54.66)"/><path class="cls-32" d="M1975.39,268.34s-9.08-38.89,32.67-72.68C2031.6,176.6,2104.57,125,2183.11,178c90.15,60.76,187.63,128.63,51,134.4S1989.64,319.53,1975.39,268.34Z" transform="translate(75.71 54.66)"/><path class="cls-13" d="M2879.28,255.52s-46.05,12.46-251.17,14l.33-164.24c4.83-1.52,40-9.57,129,17.94,108.18,33.42,203,104.79,132.95,129" transform="translate(75.71 54.66)"/><path class="cls-33" d="M2878.66,258.52s-46,12.46-251.17,14l.33-164.24c4.83-1.52,40-9.57,129,17.94,108.18,33.42,203,104.79,132.94,129" transform="translate(75.71 54.66)"/><path class="cls-13" d="M2307.9,303.7c19.41,2.72,22.67,1.69,98.24,1.61,16.08,0,84.45,0,221.9-4.36,57.81-1.81,144.9-15,168.6-25.93,7.91-3.65,23.69-12.38,24.25-36.33,1.29-54.56-46.47-86-61.52-101.26-14-14.27-49.56-31.53-59-35.33-114.83-46.39-208.17-60.5-208.17-60.5-22.33-5.13-198.35-43-298.71,62.7-9.22,9.72-66,68.78-49.35,120.07C2163.28,283.44,2268.64,298.2,2307.9,303.7Z" transform="translate(75.71 54.66)"/><path class="cls-34" d="M2304.77,308.85c19.41,2.72,22.67,1.68,98.24,1.61,16.09,0,84.45,0,221.9-4.36,57.81-1.81,144.9-15,168.6-25.93,7.91-3.65,23.69-12.38,24.26-36.33,1.28-54.56-46.48-86-61.53-101.26-14-14.27-49.56-31.53-59-35.33-114.83-46.39-208.16-60.5-208.16-60.5-22.33-5.13-198.36-43-298.71,62.7-9.23,9.72-66,68.78-49.36,120.07C2160.15,288.59,2265.51,303.35,2304.77,308.85Z" transform="translate(75.71 54.66)"/><path class="cls-35" d="M2196,669s52.5-40.78,95.23-19.19c25.93-20.39,40.32-19.81,82.31-6.31-49.18-50.07,8.4,13.51-19.2-21.28s4.8-46.78,24,0c0,0,5.13,21.06,11.83,15.69-6.26-25.46-1.34-3.12-7.15-30.37s11.17-53.17,16.53-13.85c1.34,39.76,2.68,43.78,2.68,43.78s14.95-.17,13.95-16.17-6.36-33.84-8.59-47.7,35.29-46.93,52.27,12.49c2.68,17,3.13,29.93,11.17.45,15.19-69.69,74.16-35.74,54,19.21,0,0,71.48-77.29,121.52-14.3,20.1,43.34-16.53,61.65-19.66,67,0,0,1.79,12.07,17-5.36,22.78-18.31,49.06,14.3,49.06,14.3Z" transform="translate(75.71 54.66)"/><rect class="cls-36" x="56.43" y="719.56" width="3009.72" height="53.65"/><path class="cls-37" d="M965.74,744.34c14-1.34,39.16-3,51.5,1.38,1.54.55,5.3,1.9,5.21,3.38-.15,2.38-10.15,3.58-13.33,4-5.79.69-8.13.37-18.67.3-11.27-.08-14.14.25-20.53-.66-4.08-.58-12.22-1.73-12.36-3.92C957.45,747.17,961.75,745.54,965.74,744.34Z" transform="translate(75.71 54.66)"/><path class="cls-38" d="M567,733.78c14-1.33,39.17-3,51.5,1.38,1.54.55,5.3,1.9,5.21,3.38-.15,2.39-10.14,3.59-13.32,4-5.8.7-8.14.38-18.68.3-11.26-.08-14.14.25-20.53-.66-4.08-.57-12.21-1.73-12.36-3.92C558.72,736.62,563,735,567,733.78Z" transform="translate(75.71 54.66)"/><polygon class="cls-39" points="156.69 951.2 230.21 922.71 158.23 954.89 156.69 951.2"/><path class="cls-40" d="M515,804s31.86-12.44,75.49-5S619.42,829.3,558,828.56,489.39,815.66,515,804Z" transform="translate(75.71 54.66)"/><path class="cls-41" d="M516.91,803.26s30.82-11.25,73-4.55,28,27.47-31.5,26.8S492.11,813.84,516.91,803.26Z" transform="translate(75.71 54.66)"/><path class="cls-40" d="M587.24,823.07s30.82-11.26,73-4.55,28,27.47-31.49,26.8S562.44,833.65,587.24,823.07Z" transform="translate(75.71 54.66)"/><path class="cls-42" d="M587.24,820.8s30.82-11.25,73-4.55,28,27.48-31.49,26.81S562.44,831.38,587.24,820.8Z" transform="translate(75.71 54.66)"/><path class="cls-40" d="M477.14,825.19s28.37-10.52,81.69,0-12.26,27.3-47,24.69S442.43,839.09,477.14,825.19Z" transform="translate(75.71 54.66)"/><path class="cls-43" d="M477.14,822.93s28.37-10.53,81.69,0-12.26,27.3-47,24.69S442.43,836.83,477.14,822.93Z" transform="translate(75.71 54.66)"/><path class="cls-44" d="M754.8,818.44s30.83-12.44,73.05-5,28,30.39-31.5,29.64S730,830.14,754.8,818.44Z" transform="translate(75.71 54.66)"/><path class="cls-45" d="M754.8,817.68s30.83-11.25,73.05-4.55,28,27.48-31.5,26.81S730,828.26,754.8,817.68Z" transform="translate(75.71 54.66)"/><path class="cls-46" d="M2254.11,766.61c-92.63.07-204.76,18.66-205.07,39.63s110.22,43.4,205.07,45.25c102.69,2,220-19.55,220.15-41.1S2355.73,766.53,2254.11,766.61Zm.79,75.32c-94.52,0-171.15-15.1-171.15-33.73s76.63-33.73,171.15-33.73,171.15,15.1,171.15,33.73S2349.43,841.93,2254.9,841.93Z" transform="translate(75.71 54.66)"/><path class="cls-47" d="M2281.3,748.19c-175.31,0-317.42,29.74-317.42,66.42S2106,881,2281.3,881s317.41-29.74,317.41-66.43S2456.6,748.19,2281.3,748.19Zm1.3,117.88c-119.87-2.12-259.27-29.82-258.9-55.68.38-26,142.72-49.1,258.9-49.9,129.92-.88,282.58,25.68,282.64,52.79C2565.3,840.17,2415.18,868.41,2282.6,866.07Z" transform="translate(75.71 54.66)"/><path class="cls-48" d="M46.75,835.33s31.85,1.91,49.52-4.47l-52.34,2.21" transform="translate(75.71 54.66)"/><path class="cls-49" d="M2708.66,768.32s-347.41-18.17-393-18.17-342.76,11-408.63,5.79-108.46,5.2-98.48,15.61c14.64,9.11,43.25,24.06-95.82,27.32s-296.1-12.36-329.37-12.36-362-11.78-362-11.78-384.59,2.67-401.89,4.62S266.12,793,266.12,793L-12,808.2V723.31H2708.66Z" transform="translate(75.71 54.66)"/><path class="cls-50" d="M2693,761.12s-343.88-18.4-389.05-18.4-339.28,11.14-404.48,5.87-107.36,5.27-97.48,15.81c14.49,9.22,42.81,24.36-94.84,27.66s-293.09-12.52-326-12.52-358.29-11.93-358.29-11.93S642.15,770.32,625,772.3,275.3,786.13,275.3,786.13L0,801.51v-86H2693Z" transform="translate(75.71 54.66)"/><path class="cls-51" d="M299,772.14S45.68,848.84-1.56,843.41l-1.2-68.24Z" transform="translate(75.71 54.66)"/><path class="cls-52" d="M439.72,765.12s-30.23,21.52-77,17.84,20.51-24.43,20.51-24.43Z" transform="translate(75.71 54.66)"/><path class="cls-53" d="M239.57,744.75s35.14-8.61,54.86-6.89,21.24,38.46-10.72,37.28-55.28-7.71-53.14-15.43C227.14,752.43,232.09,746.43,239.57,744.75Z" transform="translate(75.71 54.66)"/><path class="cls-54" d="M136.71,738.71s39.86-35.57,104.15-25.28c51,16.71,37.28,60.86,6.43,60.86,0,0-113.15,4.71-110.58,3.42l2.58-1.28S98.57,763.14,136.71,738.71Z" transform="translate(75.71 54.66)"/><path class="cls-55" d="M84.43,734s51.43-56.15,76.28-26.79-54.42,64.93-54.42,64.93Z" transform="translate(75.71 54.66)"/><path class="cls-56" d="M382.71,748.14s26.15-26.5,58.72-3.39c18,14.11,16.71,22.68-41.57,23.54C371.57,763.14,376.29,760.57,382.71,748.14Z" transform="translate(75.71 54.66)"/><path class="cls-57" d="M5,735.71s29.91-38.36,84.72,31.79c3.29,14.25,8.77,20.83,8.77,20.83H5Z" transform="translate(75.71 54.66)"/><path class="cls-58" d="M-18.8,659.36S3,640.65,31.62,653.5s31.25,31.79,31.25,31.79L22,707.21l-27.68-7.67Z" transform="translate(75.71 54.66)"/><path class="cls-59" d="M109.46,760.93s6.57-5.49,42.75-16.45,51.52,15.43,4.38,35.67c-58.1,8.18-80,8.18-80,8.18V765.12Z" transform="translate(75.71 54.66)"/><path class="cls-60" d="M16.28,725.24s17.22-24.61,35.47-49.82c8.2-11.33,21-18,30-15.59,21.71,5.91,18.61,73.52,18.45,76.59Q97,758.29,93.85,780.15Z" transform="translate(75.71 54.66)"/><path class="cls-61" d="M197.59,868.05H318.47s-31.34-6.82-26.12-33.23,25.37-11,33.58,31.27l13.43.51h0c-10.37-18.93-8.17-22.11-8.17-22.11a4.09,4.09,0,0,1,3.31-1.87c4.83.28,7.87,13.77,9.5,23.47l5.06,2,.75-2V850.18a10.67,10.67,0,0,1,1.85-10.58c3.24-3.62,9.09-4.45,13.81-1.6a18.59,18.59,0,0,1,1.5,7.17c-.19,4.89-2.24,12.4-9.7,22.88l6,.05s10.44-33,17.16-42.62,22.38,23.22-6.72,45.6c82.08.75,479.77,5.22,479.77,5.22s-24.62-11.19-28.35-21.63-8.21-50,23.88-11.2,25.37,32.09,25.37,32.09l16.41.74a36.06,36.06,0,0,1,.75-38c12.68-20.15,29.1-36.56,17.91,5.22-9.7,22.39-11.2,33.58-11.2,33.58l18.66-1.49s-6-20.89,0-34.33,17.9-28.35,32.83-37.3,7.46,17.9-4.48,33.57-19.4,37.31-19.4,37.31l70.88,1.49s-27.39-6-21.16-31.33,13.7-14.18,21.16,4.47S1008,877.8,1008,877.8l23.78-1.5s-12.68-6,0-18.65,26.87-9.7,13.43,4.48c-6,10.44-4.76,15.67-4.76,15.67h552.44s-22.39-10.45-15.67-27.61,32.08,23.88,35.07,26.11,14.92,2.24,14.92,2.24-9.7-29.1,10.45-43.27-6.72,34.32-4.48,40.29,12,3,12,3-15.74-15.21,8.13-36.71,14.93,6.87,0,34.47l80.59,3.73,2.24,1.5S1725.7,842.73,1719,836s-6.72-38,8.2-12.68a176.54,176.54,0,0,1,13.43,53.72l10.45.75s-5.22-28.36-10.45-45.52,6-10.74,10.45,9.55c4.48,21.79,6.72,39.7,6.72,39.7l9-3s14.18-41,27.61-48.5,8.2,23.88-.75,32.09a123.79,123.79,0,0,0-14.92,16.41l374.56-.74s-14.92-40.3-16.41-57.46,9.7-20.44,21.64,21.49l3.73,37.46,9,2.24s-9.7-38.06-9.7-53.73,10.45,1.5,14.18,33.58l1.49,17.91,5.22,2.24s9.7-26.86,26.86-45.52,20.15,23.13-6.71,39.55l-2.24,4.47,408.14,6s0-56.7,28.36-71.63-16.42,28.36-22.39,67.9c14.6-38.2,24.63-42.53,35.82-17.9,2.24,7.46,0-1.06-15.67,3S2623.32,886,2623.32,886H2711v14L18,898.38V861.77Z" transform="translate(75.71 54.66)"/><path class="cls-62" d="M-6,677.71s-9,2.75,18.47-43S93,600.81,69.23,682.29C43.59,761-7.41,854.39-7.41,854.39s44.6-59,102.27-111.44,87-10.31,39.37,43.7S29.86,890.1,29.86,890.1l84.23-35.71s-22,9.16,48.51-20.14c33.88-7.32,34.79,49.44-10.07,59.51L144.3,900-6,898.38Z" transform="translate(75.71 54.66)"/><path class="cls-48" d="M79.39,800.33s30-4.87,35.93-8.26C115.32,792.07,92.26,793.33,79.39,800.33Z" transform="translate(75.71 54.66)"/><path class="cls-48" d="M-18.72,879.44l151.53-133C116.25,764.67,97.7,783.54,77,802.59A901.76,901.76,0,0,1-18.72,879.44Z" transform="translate(75.71 54.66)"/><path class="cls-48" d="M68.43,804.11s-1.38-23.36,2.39-28.94c0,0,2.39,21.17,0,25.06Z" transform="translate(75.71 54.66)"/><path class="cls-48" d="M27.46,837.82s7.68-26.19,10.65-28.55C38.11,809.27,34.1,832.06,27.46,837.82Z" transform="translate(75.71 54.66)"/><path class="cls-48" d="M-11,784.43q26.25-76.54,52.51-153.1Q-6.18,794.6-11,793.34-12.08,793.06-11,784.43Z" transform="translate(75.71 54.66)"/><path class="cls-48" d="M10.26,723.31S-3.7,682.89-4,678.1c0,0,15.09,32.67,15.88,40.45S10.26,723.31,10.26,723.31Z" transform="translate(75.71 54.66)"/><path class="cls-48" d="M4,750l34.09-21.07S16.57,748.83,4,751.79,4,750,4,750Z" transform="translate(75.71 54.66)"/><path class="cls-48" d="M60.57,898.38s73.82-31.67,85.27-38c0,0-51.36,32.81-75.09,38S60.57,898.38,60.57,898.38Z" transform="translate(75.71 54.66)"/><path class="cls-48" d="M93.46,884.14l26.08-28S109.78,880.36,93.46,884.14Z" transform="translate(75.71 54.66)"/><path class="cls-63" d="M1125.73,769.61s8.8-22.53,27.14-37.3,15.4,22.26-11,33.45l-5.13,4.58Z" transform="translate(75.71 54.66)"/><path class="cls-63" d="M1115.46,770.34s-10.26-36.66-12.46-47.66,11.73,1.51,14.66,20.19,3.67,27.47,3.67,27.47Z" transform="translate(75.71 54.66)"/><path class="cls-63" d="M1097.86,765.76s-21.27-38-23.47-52.62,4.41-11,15.41,8.8,12,35.56,13,43.82S1097.86,765.76,1097.86,765.76Z" transform="translate(75.71 54.66)"/><path class="cls-64" d="M494.66,49.92S599.92-10.11,692.13,29c92.21,40.89,38.21,87.86-39.18,86.12,0,0-31.71,5.31-105.87,0S445.08,78.62,494.66,49.92Z" transform="translate(75.71 54.66)"/><path class="cls-65" d="M1469.87,171.73s36.49-7.37,91.78-16.4,102.83,58-4.43,61-43.11,1.44-98.41,0S1411.93,182.43,1469.87,171.73Z" transform="translate(75.71 54.66)"/><path class="cls-66" d="M1861.85,47.66a201.21,201.21,0,0,1,85.83-16.74c53.29,1.48,105,24.58,101.16,37.3-3,9.74-39.05,16-59.83,16-103.74,0-39.32,1.58-103.74,0-14.47-.35-32.56-2.92-38.35-10.57C1841.58,66.6,1848.07,56.09,1861.85,47.66Z" transform="translate(75.71 54.66)"/></g></g></svg>