<svg xmlns="http://www.w3.org/2000/svg" xmlns:xlink="http://www.w3.org/1999/xlink" viewBox="0 0 160 320"><defs><style>.cls-1{isolation:isolate;}.cls-2{fill:#d9e4db;}.cls-3{fill:url(#Áåçûìÿííûé_ãðàäèåíò_29);}.cls-4{fill:#322c5f;}.cls-5{fill:url(#Áåçûìÿííûé_ãðàäèåíò_29-2);}.cls-6{fill:url(#Áåçûìÿííûé_ãðàäèåíò_88);}.cls-7{fill:url(#Áåçûìÿííûé_ãðàäèåíò_146);}.cls-8{fill:url(#Áåçûìÿííûé_ãðàäèåíò_146-2);}.cls-9{fill:url(#Áåçûìÿííûé_ãðàäèåíò_18);}.cls-10,.cls-12{fill:#fff;}.cls-11{fill:#a41d2c;}.cls-12{mix-blend-mode:soft-light;}.cls-13,.cls-14,.cls-17{mix-blend-mode:multiply;}.cls-13{fill:url(#Áåçûìÿííûé_ãðàäèåíò_106);}.cls-14{fill:url(#Áåçûìÿííûé_ãðàäèåíò_106-2);}.cls-15{fill:#fff1d1;}.cls-16{fill:url(#Áåçûìÿííûé_ãðàäèåíò_18-2);}.cls-17{fill:#8c1e5e;opacity:0.15;}</style><linearGradient id="Áåçûìÿííûé_ãðàäèåíò_29" x1="3687.81" y1="293.3" x2="3778.75" y2="293.3" gradientTransform="matrix(-1, 0, 0, 1, 3839.75, 0)" gradientUnits="userSpaceOnUse"><stop offset="0" stop-color="#322c5f"/><stop offset="1" stop-color="#36c2df"/></linearGradient><linearGradient id="Áåçûìÿííûé_ãðàäèåíò_29-2" x1="3728.84" y1="294.51" x2="3728.84" y2="74.19" xlink:href="#Áåçûìÿííûé_ãðàäèåíò_29"/><linearGradient id="Áåçûìÿííûé_ãðàäèåíò_88" x1="3763.63" y1="58.39" x2="3772.3" y2="58.39" gradientTransform="matrix(-1, 0, 0, 1, 3839.75, 0)" gradientUnits="userSpaceOnUse"><stop offset="0" stop-color="#94969c"/><stop offset="0.57" stop-color="#70566e"/><stop offset="1" stop-color="#c59c84"/></linearGradient><linearGradient id="Áåçûìÿííûé_ãðàäèåíò_146" x1="3765.68" y1="64.26" x2="3765.68" y2="58.77" gradientTransform="matrix(-1, 0, 0, 1, 3839.75, 0)" gradientUnits="userSpaceOnUse"><stop offset="0" stop-color="#fdd8ae"/><stop offset="0.57" stop-color="#f39265"/><stop offset="1" stop-color="#e9c9c0"/></linearGradient><linearGradient id="Áåçûìÿííûé_ãðàäèåíò_146-2" x1="3773.76" y1="59.07" x2="3773.76" y2="56.48" xlink:href="#Áåçûìÿííûé_ãðàäèåíò_146"/><linearGradient id="Áåçûìÿííûé_ãðàäèåíò_18" x1="22.92" y1="62.34" x2="101.06" y2="62.34" gradientUnits="userSpaceOnUse"><stop offset="0" stop-color="#f16b68"/><stop offset="1" stop-color="#c72527"/></linearGradient><linearGradient id="Áåçûìÿííûé_ãðàäèåíò_106" x1="3718.8" y1="156.92" x2="3735.42" y2="156.92" gradientTransform="matrix(-1, 0, 0, 1, 3839.75, 0)" gradientUnits="userSpaceOnUse"><stop offset="0" stop-color="#f3b792"/><stop offset="1" stop-color="#c2a3a0"/></linearGradient><linearGradient id="Áåçûìÿííûé_ãðàäèåíò_106-2" x1="3756.39" y1="107.16" x2="3805.23" y2="107.16" xlink:href="#Áåçûìÿííûé_ãðàäèåíò_106"/><linearGradient id="Áåçûìÿííûé_ãðàäèåíò_18-2" x1="7.07" y1="98.28" x2="53.78" y2="98.28" xlink:href="#Áåçûìÿííûé_ãðàäèåíò_18"/></defs><g class="cls-1"><g id="Layer_1" data-name="Layer 1"><polygon class="cls-2" points="31.08 101.78 29.86 31 97.59 11.29 97.59 113.78 31.08 101.78"/><polygon class="cls-3" points="151.93 309.9 89.18 276.69 61 276.69 114.93 309.9 151.93 309.9"/><polygon class="cls-4" points="151.93 309.9 152.93 314.11 115.09 314.81 60.3 279.19 61 276.69 114.93 309.9 151.93 309.9"/><polygon class="cls-5" points="97.59 74.19 97.59 77.27 99.08 78.72 101.06 80.64 104.49 83.97 120.95 99.94 109.23 294.51 117.59 294.51 124.23 98.06 104.59 80.46 101.06 77.3 99.04 75.49 97.59 74.19"/><polygon class="cls-6" points="67.45 56.48 71.72 58.58 71.73 58.58 72.11 58.77 76.07 60.73 76.12 57.82 73.15 56.06 67.45 56.48"/><polygon class="cls-4" points="97.59 77.27 97.59 83.15 99.13 84.76 101.06 86.76 104.33 90.16 114.38 100.64 100.91 289.89 109.23 294.51 120.95 99.94 104.49 83.97 101.06 80.64 99.08 78.72 97.59 77.27"/><polygon class="cls-7" points="72.11 58.77 72.07 62.45 76.01 64.26 76.07 60.73 72.11 58.77"/><polygon class="cls-8" points="60.25 56.98 64.78 59.07 71.72 58.58 67.45 56.48 67.44 56.48 60.25 56.98"/><path class="cls-9" d="M51.17,57.61,60.24,57h0l7.19-.5h0l4.27,2.1-6.94.49-14.6,1Zm25-1.75,0,2-3-1.76Zm-25,1.75L60.24,57h0l7.19-.5h0l5.7-.42,3-.2,0,2-.05,2.9L76,64.26l-.64,39.49L39.51,97.23l-.32-9.74h0l-1-28.95ZM41.39,95.37l30.32,4,.36-36.95,0-3.68-.38-.19h0l-6.94.49-14.6,1-10,.7L41,83Zm9.78-37.76L60.24,57h0l7.19-.5h0l5.7-.42,3-.2,0,2-.05,2.9L76,64.26l-.64,39.49L39.51,97.23l-.32-9.74h0l-1-28.95ZM41.39,95.37l30.32,4,.36-36.95,0-3.68-.38-.19h0l-6.94.49-14.6,1-10,.7L41,83Zm9.78-37.76L60.24,57h0l7.19-.5h0l5.7-.42,3-.2,0,2-.05,2.9L76,64.26l-.64,39.49L39.51,97.23l-.32-9.74h0l-1-28.95ZM41.39,95.37l30.32,4,.36-36.95,0-3.68-.38-.19h0l-6.94.49-14.6,1-10,.7L41,83Zm9.78-37.76L60.24,57h0l7.19-.5h0l5.7-.42,3-.2,0,2-.05,2.9L76,64.26l-.64,39.49L39.51,97.23l-.32-9.74h0l-1-28.95ZM41.39,95.37l30.32,4,.36-36.95,0-3.68-.38-.19h0l-6.94.49-14.6,1-10,.7L41,83Zm9.78-37.76L60.24,57h0l7.19-.5h0l5.7-.42,3-.2,0,2-.05,2.9L76,64.26l-.64,39.49L39.51,97.23l-.32-9.74h0l-1-28.95ZM41.39,95.37l30.32,4,.36-36.95,0-3.68-.38-.19h0l-6.94.49-14.6,1-10,.7L41,83Zm9.78-37.76L60.24,57h0l7.19-.5h0l5.7-.42,3-.2,0,2-.05,2.9L76,64.26l-.64,39.49L39.51,97.23l-.32-9.74h0l-1-28.95ZM41.39,95.37l30.32,4,.36-36.95,0-3.68-.38-.19h0l-6.94.49-14.6,1-10,.7L41,83ZM101.06,5.19v114.3L24.25,105.63,22.92,27.94Zm-3.47,6.1L84.83,15,66.08,20.46l-28,8.14-1.38.4-6.86,2,1,60.27.18,10.51,49.54,8.94,17,3.06ZM76.07,60.72,76,64.26l-.64,39.49L39.51,97.23l-.32-9.74h0l-1-28.95,13-.92L60.24,57h0l7.19-.5h0l5.7-.42,3-.2,0,2Zm-4.34-2.14h0l-6.94.49-14.6,1-10,.7L41,83l.41,12.35,30.32,4,.36-36.95,0-3.68Zm-20.56-1L60.24,57h0l7.19-.5h0l5.7-.42,3-.2,0,2-.05,2.9L76,64.26l-.64,39.49L39.51,97.23l-.32-9.74h0l-1-28.95ZM41.39,95.37l30.32,4,.36-36.95,0-3.68-.38-.19h0l-6.94.49-14.6,1-10,.7L41,83Zm9.78-37.76L60.24,57h0l7.19-.5h0l5.7-.42,3-.2,0,2-.05,2.9L76,64.26l-.64,39.49L39.51,97.23l-.32-9.74h0l-1-28.95ZM41.39,95.37l30.32,4,.36-36.95,0-3.68-.38-.19h0l-6.94.49-14.6,1-10,.7L41,83Zm9.78-37.76L60.24,57h0l7.19-.5h0l5.7-.42,3-.2,0,2-.05,2.9L76,64.26l-.64,39.49L39.51,97.23l-.32-9.74h0l-1-28.95ZM41.39,95.37l30.32,4,.36-36.95,0-3.68-.38-.19h0l-6.94.49-14.6,1-10,.7L41,83Zm9.78-37.76L60.24,57h0l7.19-.5h0l5.7-.42,3-.2,0,2-.05,2.9L76,64.26l-.64,39.49L39.51,97.23l-.32-9.74h0l-1-28.95ZM41.39,95.37l30.32,4,.36-36.95,0-3.68-.38-.19h0l-6.94.49-14.6,1-10,.7L41,83Zm9.78-37.76L60.24,57h0l7.19-.5h0l5.7-.42,3-.2,0,2-.05,2.9L76,64.26l-.64,39.49L39.51,97.23l-.32-9.74h0l-1-28.95ZM41.39,95.37l30.32,4,.36-36.95,0-3.68-.38-.19h0l-6.94.49-14.6,1-10,.7L41,83Zm9.78-37.76L60.24,57h0l7.19-.5h0l5.7-.42,3-.2,0,2-.05,2.9L76,64.26l-.64,39.49L39.51,97.23l-.32-9.74h0l-1-28.95ZM41.39,95.37l30.32,4,.36-36.95,0-3.68-.38-.19h0l-6.94.49-14.6,1-10,.7L41,83Z"/><path class="cls-10" d="M51,57l9.32-.65h0l7.37-.52h0l5.86-.42,3.08-.22,0,2-.06,3-.06,3.63-.65,40.55L39,97.69l-.33-10h0L37.7,58ZM42.73,93.83l27.51,3.66L70.57,64l0-3.33-.35-.18h0l-6.3.45-13.25.94-9,.63.68,20.16Z"/><path class="cls-11" d="M26.39,31l1.22,70.78,46.05,8.31,23.93,4.32v-.63l-17-3.06-49.54-8.94C30.78,84.2,30,36.41,29.86,31L97.59,11.29v-1Z"/><polygon class="cls-11" points="101.06 5.2 106.35 5.2 103.65 119.49 101.06 119.49 101.06 5.2"/><polygon class="cls-12" points="122.88 137.85 119.36 126.28 115.72 186.73 120.65 203.89 122.88 137.85"/><polygon class="cls-12" points="120.45 209.78 115.19 195.65 114.06 214.37 119.77 229.86 120.45 209.78"/><polygon class="cls-12" points="148.21 309.36 115.52 309.36 62.84 277.11 71.38 277.11 118.87 307.38 148.21 309.36"/><polygon class="cls-13" points="114.39 100.64 113.13 229.86 120.94 99.94 104.49 83.97 104.33 90.17 114.39 100.64"/><polygon class="cls-12" points="104.51 83.14 122.03 99.59 109.24 294.51 120.95 99.94 104.49 83.97 104.51 83.14"/><polygon class="cls-10" points="117.81 291.85 151.93 309.9 114.93 309.9 61 276.69 115.52 309.36 149.35 309.36 117.81 291.85"/><polygon class="cls-14" points="42.77 101.7 80.62 107.72 83.36 112.63 34.51 104.85 42.77 101.7"/><polygon class="cls-11" points="58.41 96.91 58.41 100.81 51.97 99.93 51.97 96.91 58.41 96.91"/><path class="cls-15" d="M29.86,128.57c-1.5,0-14.69-.07-14.69-2.48s13.19-2.47,14.69-2.47,14.7.07,14.7,2.47S31.37,128.57,29.86,128.57Zm-13.6-2.48c.87.63,5.9,1.47,13.6,1.47s12.74-.84,13.61-1.47c-.87-.63-5.9-1.46-13.61-1.46S17.13,125.46,16.26,126.09Z"/><path class="cls-15" d="M52.66,102.1c-.33,1-.72,2-1.15,3.05a19.39,19.39,0,0,0-1.28,3l-.39,1.58a12.81,12.81,0,0,1-.54,1.54c-.43,1-.85,2-1.24,3a59,59,0,0,0-2,6.21l-1.75,6.27c-1.13,4.18-2.3,8.38-3.22,12.58l-.17.77-.12.73a11.6,11.6,0,0,0,0,1.56c0,1.07.16,2.14.28,3.22a63.54,63.54,0,0,0,1.09,6.41.25.25,0,1,1-.48.1h0l-1.33-6.4c-.22-1.07-.43-2.14-.58-3.24a13.12,13.12,0,0,1-.14-1.68l.09-.9.14-.82c.91-4.3,2.11-8.46,3.23-12.66l1.74-6.29a64.85,64.85,0,0,0,1.58-6.32c.2-1.08.39-2.15.55-3.24.1-.54.21-1.07.36-1.59l.52-1.55a20.35,20.35,0,0,0,.54-3.23c.18-1.08.39-2.15.67-3.21a1.87,1.87,0,1,1,3.6,1A.31.31,0,0,1,52.66,102.1Z"/><path class="cls-15" d="M11.76,99.89a24.53,24.53,0,0,1,.72,3.25c.07.56.09,1.12.15,1.67a11.21,11.21,0,0,0,.33,1.63c.56,2.15,1.52,4.23,1.55,6.48,0,1.13.18,2.23.31,3.34s.41,2.18.6,3.27l1.26,6.54c.42,2.19.85,4.36,1.18,6.56l.49,3.31.2,1.67a7.86,7.86,0,0,1,0,1.75,30.8,30.8,0,0,1-1.71,6.52c-.71,2.11-1.42,4.21-2.16,6.31a.21.21,0,0,1-.26.12.2.2,0,0,1-.13-.26h0c.76-2.08,1.46-4.19,2-6.33.26-1.07.52-2.15.75-3.22a21.52,21.52,0,0,0,.54-3.21,16.36,16.36,0,0,0-.37-3.19l-.61-3.26-1.22-6.54c-.41-2.18-.8-4.36-1.25-6.53-.23-1.09-.43-2.18-.69-3.26a27.92,27.92,0,0,0-1-3.19c-.83-2.1-.75-4.38-1.07-6.58a13,13,0,0,0-.32-1.63c-.16-.53-.36-1.06-.52-1.59a25.8,25.8,0,0,1-.61-3.27.9.9,0,0,1,.8-1A.88.88,0,0,1,11.76,99.89Z"/><path class="cls-15" d="M41.81,101.12c-.27,1.07-.55,2.15-.85,3.22a16.65,16.65,0,0,0-.79,3.24c-.05.55-.07,1.12-.15,1.66s-.24,1.09-.38,1.63c-.29,1.07-.63,2.14-.94,3.21a52,52,0,0,0-1.4,6.51l-1.09,6.56c-.71,4.38-1.39,8.77-2,13.12a43.1,43.1,0,0,0-.33,6.56,39.39,39.39,0,0,0,.58,6.6h0a.24.24,0,0,1-.48.08h0c-.33-2.22-.57-4.42-.87-6.64a34.43,34.43,0,0,1-.28-6.75c.36-4.47,1.16-8.84,1.91-13.23l1.18-6.56a58.29,58.29,0,0,0,1-6.6c.09-1.11.15-2.23.27-3.34.06-.55.12-1.11.22-1.65s.3-1.08.46-1.61a17.45,17.45,0,0,0,.44-3.31c.11-1.11.24-2.22.39-3.32a1.62,1.62,0,0,1,3.2.44Z"/><path class="cls-15" d="M22.7,100.42c.11,1.07.17,2.15.2,3.23a29.15,29.15,0,0,0,.11,3.24,30.37,30.37,0,0,1,.38,6.46,52,52,0,0,0,.14,6.49L24,126.3c.31,4.31.49,8.62.69,13a27.39,27.39,0,0,1-.32,6.52c-.34,2.15-.73,4.27-1.19,6.4a.23.23,0,1,1-.45-.1h0a49.48,49.48,0,0,0,1-12.78c-.17-4.3-.53-8.6-.76-12.91l-.4-6.47a48.46,48.46,0,0,0-.73-6.44,30.3,30.3,0,0,1-.5-6.45,29.07,29.07,0,0,0-.35-3.22c-.12-1.08-.21-2.15-.25-3.23a1,1,0,0,1,2-.14Z"/><path class="cls-15" d="M13.93,112.63a.64.64,0,0,0-.2-.52c-.05,0,0,0,0,0a2.1,2.1,0,0,0,.36.16,7.77,7.77,0,0,0,1,.29c.69.17,1.41.3,2.14.42,1.45.23,2.93.42,4.41.56s3,.27,4.47.28,3,0,4.48-.06a86,86,0,0,0,8.94-.39c1.47-.2,3-.29,4.42-.41a18.54,18.54,0,0,0,2.15-.34c.34-.08.68-.17,1-.27a3.15,3.15,0,0,0,.36-.17l0,0a.59.59,0,0,0-.18.46.67.67,0,0,0,.17.47s0,0,0,0L47,113a7,7,0,0,0-1-.18c-.7-.1-1.43-.1-2.16-.15-1.46-.1-2.93-.18-4.4-.37-2.95-.37-5.93-.29-8.91-.46a53.24,53.24,0,0,0-8.93.11c-1.49.12-2.95.36-4.4.57-.72.11-1.45.21-2.13.34-.34.07-.68.13-1,.22a2.87,2.87,0,0,0-.37.11s-.06,0,0,0A.84.84,0,0,0,13.93,112.63Zm-2.09,0a1.42,1.42,0,0,1,.45-1,3.11,3.11,0,0,1,.45-.34,6.34,6.34,0,0,1,.67-.31,10.36,10.36,0,0,1,1.21-.37,21,21,0,0,1,2.31-.39c1.53-.18,3.05-.19,4.56-.28,3-.1,6.05-.22,9.07-.44s6.05.07,9.09.1a24.34,24.34,0,0,1,4.56.47c.76.15,1.51.37,2.28.59.39.12.78.23,1.19.39a4.9,4.9,0,0,1,.66.32,2.35,2.35,0,0,1,.43.32,1.29,1.29,0,0,1,.43.95,1.33,1.33,0,0,1-.44.94,2.05,2.05,0,0,1-.44.29,4.94,4.94,0,0,1-.67.27,12.2,12.2,0,0,1-1.19.3c-.78.17-1.54.27-2.3.41a27.79,27.79,0,0,1-4.54.43c-3,.06-6,.16-9.06.15-1.51,0-3-.13-4.52-.19l-4.53-.14c-1.51,0-3-.12-4.55-.28-.76-.08-1.53-.17-2.31-.32a10.53,10.53,0,0,1-1.21-.29,4.34,4.34,0,0,1-.68-.27,2.15,2.15,0,0,1-.45-.31A1.36,1.36,0,0,1,11.84,112.63Z"/><path class="cls-15" d="M18.55,140.42c0-.08.05.08.22.17a4.19,4.19,0,0,0,.56.27,10.81,10.81,0,0,0,1.33.38,25.84,25.84,0,0,0,2.8.39c1.89.14,3.8.16,5.7.15a46.68,46.68,0,0,0,5.68-.32c.94-.1,1.88-.21,2.79-.39a9.87,9.87,0,0,0,1.3-.36,2.83,2.83,0,0,0,.55-.25c.15-.08.18-.23.15,0s0,0-.17,0a3.54,3.54,0,0,0-.54-.22,8.65,8.65,0,0,0-1.31-.32c-.91-.15-1.84-.25-2.78-.36-1.87-.22-3.77-.33-5.67-.4a54.17,54.17,0,0,0-5.7.12,26.21,26.21,0,0,0-2.8.4,10.65,10.65,0,0,0-1.32.38,3.36,3.36,0,0,0-.57.26C18.6,140.34,18.53,140.49,18.55,140.42Zm-.9,0a1.54,1.54,0,0,1,.09-.37.92.92,0,0,1,.17-.24,1.3,1.3,0,0,1,.38-.31,4.39,4.39,0,0,1,.73-.35,13.77,13.77,0,0,1,1.45-.41c1-.22,1.93-.35,2.89-.48a56.41,56.41,0,0,1,5.8-.46A45.64,45.64,0,0,1,35,138a21.16,21.16,0,0,1,2.91.52,13,13,0,0,1,1.46.47,5.3,5.3,0,0,1,.75.38,1.78,1.78,0,0,1,.41.35,1.52,1.52,0,0,1,.19.28,2.18,2.18,0,0,1,.11.44,2.26,2.26,0,0,1-.11.43,1.18,1.18,0,0,1-.2.27,1.71,1.71,0,0,1-.41.34,3.94,3.94,0,0,1-.76.35,10.46,10.46,0,0,1-1.46.43,24.55,24.55,0,0,1-2.91.49c-1.94.19-3.88.25-5.82.26a41.7,41.7,0,0,1-5.8-.43,29.07,29.07,0,0,1-2.89-.49,11.05,11.05,0,0,1-1.44-.4,5.36,5.36,0,0,1-.74-.34,1.64,1.64,0,0,1-.37-.31.94.94,0,0,1-.18-.24A1.46,1.46,0,0,1,17.65,140.42Z"/><polygon class="cls-16" points="53.78 96.03 52.9 101.7 8.21 99.97 7.07 94.87 53.78 96.03"/><polygon class="cls-12" points="20.69 95.88 20.69 99.59 9.3 99.04 8.29 95.88 20.69 95.88"/><polygon class="cls-12" points="22.92 95.88 29.86 95.88 29.16 99.59 22.96 99.59 22.92 95.88"/><polygon class="cls-12" points="38.21 58.53 39.19 87.48 40.98 83.02 40.23 60.8 50.18 60.1 51.17 57.61 38.21 58.53"/><polygon class="cls-17" points="96.15 13.21 95.09 111.32 55.19 105.04 88.26 108.09 85.52 17.27 96.15 13.21"/><polygon class="cls-12" points="47.08 23.83 44.69 22.11 23.89 28.35 26.39 29.79 47.08 23.83"/><polygon class="cls-12" points="48.02 23.62 45.77 21.86 53.61 19.64 55.48 21.57 48.02 23.62"/></g></g></svg>