<svg id="Layer_1" data-name="Layer 1" xmlns="http://www.w3.org/2000/svg" xmlns:xlink="http://www.w3.org/1999/xlink" viewBox="0 0 420 260"><defs><style>.cls-1{fill:#a09e9d;}.cls-2{fill:#843d2b;}.cls-3{fill:#793025;}.cls-4{fill:#4c0f09;}.cls-5{fill:#9c5b3f;}.cls-6{fill:#914e38;}.cls-7{fill:#380e1b;}.cls-8{fill:#ac6553;}.cls-9{fill:#8d4936;}.cls-10{fill:url(#linear-gradient);}</style><linearGradient id="linear-gradient" x1="84.8" y1="17.87" x2="86.54" y2="265.19" gradientUnits="userSpaceOnUse"><stop offset="0.01" stop-color="#4c0f09"/><stop offset="0.32" stop-color="#d9998c"/><stop offset="0.96" stop-color="#e0a093"/></linearGradient></defs><g id="c"><g id="c-2" data-name="c"><polygon class="cls-1" points="8.12 25.45 411.88 22.5 411.88 10.89 408.71 7.7 73.35 11.97 8.12 25.45"/><polygon class="cls-2" points="8.12 25.45 13.25 51.41 411.88 51.41 411.88 22.5 8.12 25.45"/><polygon class="cls-3" points="84.75 51.41 90.31 252.3 411.88 252.3 411.88 51.41 84.75 51.41"/><polygon class="cls-4" points="84.75 51.41 411.88 51.41 411.88 72.86 85.23 68.72 84.75 51.41"/><polygon class="cls-5" points="109.01 24.67 253.14 23.66 257.94 51.41 120.99 51.41 109.01 24.67"/><polygon class="cls-6" points="131.02 69.3 196.44 252.3 279.33 252.3 261.52 70.95 131.02 69.3"/><polygon class="cls-7" points="121.17 88.96 411.88 91.48 407.09 252.3 394.51 252.3 399.82 101.95 134.23 99.85 142.55 252.3 127.18 252.3 121.17 88.96"/><path class="cls-8" d="M142.55,252.3,134.23,99.85,399.82,102V125s-4.3,1.09-5-1.45l0-17.65L140.56,104.3l7.63,148Z"/><polygon class="cls-9" points="131.02 69.3 138.1 89.11 263.41 90.19 261.52 70.95 131.02 69.3"/><polygon class="cls-10" points="90.31 252.3 84.75 51.41 81.18 51.41 87.41 252.3 90.31 252.3"/></g></g></svg>